<?xml version="1.0" standalone="no"?>
<!DOCTYPE svg PUBLIC "-//W3C//DTD SVG 20010904//EN"
 "http://www.w3.org/TR/2001/REC-SVG-20010904/DTD/svg10.dtd">
<svg version="1.0" xmlns="http://www.w3.org/2000/svg"
 width="300.000000pt" height="53.000000pt" viewBox="0 0 300.000000 53.000000"
 preserveAspectRatio="xMidYMid meet">
<metadata>
Created by potrace 1.10, written by Peter Selinger 2001-2011
</metadata>
<g transform="translate(0.000000,53.000000) scale(0.100000,-0.100000)"
fill="#000000" stroke="none">
<path d="M228 525 c-4 -4 -51 -7 -106 -6 -93 1 -99 0 -110 -21 -9 -17 -12 -88
-10 -253 l3 -230 71 -3 71 -3 7 32 c3 17 6 60 6 95 0 35 4 64 9 64 14 0 44
-46 76 -115 16 -33 33 -63 39 -67 6 -4 43 -8 82 -8 l72 0 6 31 c5 26 -3 49
-39 117 -43 81 -45 86 -28 104 25 27 43 86 43 140 0 36 -6 54 -26 77 -26 31
-61 43 -51 18 3 -8 -3 -13 -14 -13 -21 0 -25 12 -6 19 6 2 10 7 7 10 -8 9 -95
19 -102 12z m-91 -21 c-3 -3 -12 -4 -19 -1 -8 3 -5 6 6 6 11 1 17 -2 13 -5z
m47 -43 c-4 -3 -9 0 -11 7 -3 6 -9 12 -14 12 -4 0 -6 -7 -2 -16 3 -9 1 -19 -6
-23 -6 -4 -12 -29 -13 -55 -1 -58 23 -90 63 -82 15 3 35 -1 45 -9 11 -8 26
-15 36 -15 14 0 14 -4 5 -25 -10 -19 -17 -23 -37 -18 -14 3 -32 12 -41 19 -33
29 -71 7 -71 -41 0 -14 -3 -25 -7 -25 -4 0 -5 -18 -3 -40 4 -35 2 -40 -17 -40
-12 0 -21 -6 -21 -15 0 -18 -14 -20 -28 -2 -11 13 -21 97 -12 97 3 0 12 -6 19
-13 10 -10 12 -9 9 3 -2 10 4 14 17 12 16 -2 17 -1 5 7 -9 6 -18 6 -26 0 -14
-11 -18 -6 -27 32 -6 23 -4 26 26 27 43 3 65 7 72 14 4 3 -12 5 -34 5 -42 -2
-45 0 -35 27 5 14 8 14 21 1 8 -8 21 -15 29 -15 20 0 -10 30 -48 49 -15 8 -25
18 -22 23 3 4 -4 8 -15 8 -12 0 -21 -7 -21 -15 0 -8 9 -15 20 -15 11 0 20 -4
20 -10 0 -5 -3 -9 -7 -9 -28 5 -35 -3 -14 -15 15 -8 20 -16 12 -20 -6 -4 -11
-2 -11 3 0 6 -5 11 -10 11 -7 0 -10 -43 -8 -122 l3 -123 35 -2 c19 -1 45 -2
58 -2 12 -1 22 -7 22 -16 0 -12 -14 -15 -65 -15 l-65 0 2 233 c1 127 3 208 5
180 3 -45 7 -53 24 -53 10 0 21 1 23 3 2 1 13 -6 24 -16 14 -13 22 -15 27 -7
10 16 -2 40 -21 40 -10 0 -14 5 -11 15 4 8 2 17 -2 20 -13 8 -1 43 17 50 8 3
18 1 22 -5 4 -7 15 -4 31 9 24 19 24 19 32 -1 4 -12 4 -24 1 -27z m96 5 c0
-14 -6 -23 -15 -23 -8 0 -15 4 -15 9 0 4 5 8 12 8 9 0 9 3 0 12 -17 17 -15 29
3 22 8 -4 15 -16 15 -28z m-49 -13 c-10 -17 -10 -16 -11 3 0 23 13 41 18 25 2
-6 -1 -18 -7 -28z m99 11 c0 -3 -7 -13 -16 -22 -11 -10 -13 -17 -5 -20 6 -2
11 -8 11 -14 0 -6 -6 -6 -15 2 -18 15 -19 32 -3 48 13 13 28 16 28 6z m25 -26
c-5 -21 -5 -21 9 2 13 22 15 23 21 8 4 -11 0 -24 -10 -35 -16 -15 -16 -18 -1
-28 23 -17 20 -32 -11 -60 -18 -16 -23 -24 -13 -25 9 0 7 -5 -8 -16 -22 -15
-24 -15 -36 2 -7 9 -18 14 -23 11 -6 -4 -17 0 -24 9 -11 13 -11 15 2 13 21 -4
60 11 54 22 -7 10 14 88 28 107 14 18 19 15 12 -10z m-275 -12 c0 -2 -11 -6
-25 -8 -19 -4 -23 -2 -15 7 5 6 6 15 2 20 -4 4 3 2 16 -4 12 -6 22 -13 22 -15z
m190 -16 c11 -11 20 -24 20 -30 0 -26 -41 -50 -85 -50 -43 0 -45 1 -45 30 0
28 2 30 39 30 30 0 44 -6 55 -22 11 -16 16 -18 16 -7 0 26 -22 39 -67 39 -32
0 -43 4 -43 15 0 24 85 20 110 -5z m125 -10 c-3 -5 -11 -10 -16 -10 -6 0 -7 5
-4 10 3 6 11 10 16 10 6 0 7 -4 4 -10z m-286 -16 c1 -1 1 -7 0 -13 -2 -5 -15
0 -29 11 l-25 21 25 -8 c14 -4 27 -9 29 -11z m271 -103 c-5 -11 -19 -23 -31
-26 -17 -6 -18 -9 -7 -23 12 -16 11 -16 -7 -1 -11 9 -26 14 -32 12 -7 -3 -13
1 -13 7 0 7 8 10 18 8 10 -3 31 5 48 18 35 29 38 29 24 5z m-161 -70 c12 -16
21 -34 21 -39 0 -6 8 -18 17 -28 10 -9 18 -24 20 -33 1 -8 8 -20 16 -26 7 -5
12 -16 10 -22 -7 -21 36 -15 49 7 16 26 31 26 23 1 -5 -16 0 -20 21 -23 15 -2
29 -9 32 -15 3 -10 -14 -13 -65 -13 l-68 0 -46 88 c-26 50 -55 91 -67 97 -12
5 -22 15 -22 22 0 24 38 13 59 -16z m117 -2 c3 -5 1 -9 -5 -9 -17 0 -41 12
-41 20 0 10 38 1 46 -11z m-76 -4 c0 -8 -2 -15 -4 -15 -2 0 -6 7 -10 15 -3 8
-1 15 4 15 6 0 10 -7 10 -15z m33 -27 c-28 -10 -38 -9 -26 3 6 6 9 18 6 26 -5
12 0 11 16 -3 20 -17 20 -19 4 -26z m89 -33 c21 -43 21 -64 -1 -50 -6 3 -11
18 -11 32 0 15 -7 35 -17 45 -10 11 -12 18 -4 18 6 0 21 -20 33 -45z m-69 8
c-6 -16 -5 -16 11 -4 15 13 19 13 27 0 14 -22 11 -24 -27 -23 -45 2 -53 10
-28 29 24 18 25 18 17 -2z m34 -49 c8 -22 -15 -43 -27 -24 -6 9 -6 16 0 18 6
2 8 8 4 13 -3 5 0 9 6 9 6 0 13 -7 17 -16z m-222 -15 c11 -17 -1 -21 -15 -4
-8 9 -8 15 -2 15 6 0 14 -5 17 -11z"/>
<path d="M96 457 c3 -10 9 -15 12 -12 3 3 0 11 -7 18 -10 9 -11 8 -5 -6z"/>
<path d="M331 337 c-25 -27 -26 -33 -7 -40 10 -4 13 -1 9 9 -3 7 0 14 7 14 6
0 9 4 5 9 -3 5 3 11 12 13 11 2 14 6 7 10 -6 4 -21 -3 -33 -15z"/>
<path d="M1778 492 l-28 -28 0 -147 c0 -81 3 -147 8 -147 4 0 6 64 4 143 -3
121 -1 145 12 156 14 12 16 1 16 -108 0 -90 3 -121 13 -121 9 0 8 -3 -2 -9
-24 -15 -2 -30 34 -24 30 5 35 3 34 -13 0 -11 -3 -14 -6 -6 -2 6 -9 12 -15 12
-6 0 -8 -7 -4 -15 3 -8 1 -15 -5 -15 -6 0 -3 -7 6 -17 13 -13 19 -13 25 -4 5
9 10 10 14 3 3 -6 -3 -14 -15 -17 -13 -4 -25 -2 -29 5 -6 9 -9 9 -13 -1 -4
-10 -6 -9 -6 3 -1 9 -7 19 -13 21 -10 4 -10 6 0 6 17 1 15 21 -3 21 -12 0 -15
-13 -13 -68 l3 -67 124 -3 c108 -2 129 0 165 18 l41 21 -28 -25 c-15 -14 -44
-30 -65 -35 -55 -16 -247 -14 -260 2 -6 7 -12 37 -15 67 l-3 55 -2 -61 c-1
-43 2 -65 12 -74 11 -8 56 -11 154 -8 133 3 140 4 174 30 19 15 46 49 59 75
21 42 24 62 24 158 0 126 -14 168 -73 213 -34 26 -41 27 -166 29 -131 2 -131
2 -158 -25z m186 -14 c-5 -8 -2 -9 12 -3 21 10 92 10 102 1 3 -4 0 -12 -7 -19
-9 -9 -18 -8 -41 5 -17 9 -30 13 -30 9 0 -8 -21 -17 -58 -26 -8 -2 -19 -11
-26 -20 -11 -15 -12 -15 -13 2 -1 10 -2 23 -3 28 -6 27 2 35 36 35 24 0 33 -4
28 -12z m-110 -42 c6 -26 6 -27 -9 -12 -10 9 -14 24 -11 33 8 20 11 16 20 -21z
m36 2 c0 -4 -4 -8 -9 -8 -6 0 -12 4 -15 8 -3 5 1 9 9 9 8 0 15 -4 15 -9z m174
-1 c27 14 30 14 55 -11 24 -25 26 -34 29 -132 6 -176 -27 -214 -186 -215 -46
-1 -85 1 -87 3 -2 2 3 17 11 33 12 23 13 34 3 51 -6 12 -9 27 -5 32 7 12 -18
35 -27 25 -4 -3 -7 -1 -7 4 0 6 -12 16 -27 21 l-28 10 27 1 c14 1 28 -5 31
-11 4 -10 7 -10 18 0 11 10 10 12 -3 12 -21 0 -50 28 -43 41 10 15 22 10 28
-11 3 -11 10 -20 16 -20 8 0 6 12 -3 35 -8 19 -12 35 -9 35 4 0 -3 10 -14 23
-11 12 -23 33 -26 47 -5 22 -5 23 7 8 15 -21 42 -24 49 -5 3 7 6 4 6 -6 1 -10
5 -16 10 -12 5 3 13 0 17 -6 5 -9 -1 -10 -22 -5 -26 6 -27 5 -9 -6 18 -11 20
-23 19 -98 -1 -112 10 -140 62 -168 16 -9 26 -8 43 4 12 9 25 13 29 9 3 -3 0
-10 -8 -15 -9 -6 -10 -10 -3 -10 12 0 54 65 58 90 1 8 -2 21 -8 28 -7 9 -6 11
4 7 10 -4 14 3 13 27 -1 22 4 35 15 40 15 6 14 7 0 7 -9 1 -19 8 -23 16 -7 18
5 20 22 3 9 -9 12 -8 12 6 0 9 -4 14 -10 11 -5 -3 -10 -1 -10 6 0 7 -7 20 -16
30 -14 15 -14 20 -2 32 7 8 20 17 28 20 8 3 3 5 -11 4 -36 -4 -62 -26 -53 -46
10 -23 20 -180 12 -174 -5 2 -8 -5 -8 -16 0 -12 5 -21 11 -21 5 0 7 -5 3 -12
-6 -9 -9 -9 -12 0 -2 7 -11 12 -19 12 -9 0 -13 -6 -10 -13 4 -10 -2 -13 -19
-9 -13 2 -31 -1 -39 -8 -13 -11 -14 -10 -10 2 4 9 -1 18 -9 21 -13 5 -16 26
-16 113 l0 107 32 -7 c47 -9 61 -28 66 -90 2 -31 8 -56 11 -56 7 0 4 55 -5 98
-7 34 -40 62 -73 62 -27 0 -28 1 -18 25 7 15 13 19 15 11 2 -8 19 -16 38 -18
35 -4 53 5 34 17 -5 3 -10 12 -10 18 1 7 6 5 13 -4 11 -15 15 -15 41 -2z m11
-87 c3 -5 1 -10 -4 -10 -6 0 -11 5 -11 10 0 6 2 10 4 10 3 0 8 -4 11 -10z
m-231 -14 c-7 -17 -34 -30 -34 -16 0 6 5 10 11 10 5 0 7 5 4 10 -3 6 1 10 9
10 9 0 13 -6 10 -14z m150 -208 c-3 -4 -12 -8 -20 -8 -8 0 -13 4 -10 8 3 5 12
9 20 9 8 0 13 -4 10 -9z m-126 -19 c-2 -6 -8 -10 -13 -10 -5 0 -11 4 -13 10
-2 6 4 11 13 11 9 0 15 -5 13 -11z m-33 -19 c3 -6 -4 -10 -17 -10 -18 0 -20 2
-8 10 19 12 18 12 25 0z"/>
<path d="M2022 200 c0 -14 2 -19 5 -12 2 6 2 18 0 25 -3 6 -5 1 -5 -13z"/>
<path d="M1015 499 c-11 -5 -33 -29 -48 -53 -28 -45 -34 -61 -17 -51 6 3 10 0
10 -8 0 -10 -7 -13 -20 -10 -14 4 -22 -1 -29 -18 -5 -14 -5 -25 0 -27 5 -2 9
-15 9 -28 0 -17 6 -24 20 -24 11 0 20 -6 21 -12 0 -7 0 -59 -1 -116 l-1 -102
50 0 c37 0 51 -4 51 -14 0 -8 -6 -17 -12 -20 -7 -3 -4 -5 6 -3 26 3 43 54 27
79 -6 10 -8 18 -4 18 5 0 6 29 5 65 -4 63 -3 65 21 65 29 0 33 8 36 78 2 50 2
52 -24 52 -22 0 -26 4 -23 23 3 23 48 39 48 17 0 -6 -10 -15 -22 -20 -23 -10
-23 -10 1 -7 20 2 27 11 39 55 8 29 13 55 10 57 -10 10 -135 14 -153 4z m27
-35 c-3 -17 -8 -22 -15 -15 -11 11 -3 41 11 41 5 0 7 -12 4 -26z m85 2 c4 -3
3 -9 -1 -13 -4 -4 -11 -1 -16 7 -6 8 -10 10 -10 4 0 -6 -9 -21 -19 -33 -18
-21 -21 -21 -53 -7 -18 9 -23 13 -11 10 17 -4 25 1 34 18 8 19 17 24 40 22 17
-1 33 -5 36 -8z m-137 -40 c0 -2 -7 -6 -15 -10 -8 -3 -15 -1 -15 4 0 6 7 10
15 10 8 0 15 -2 15 -4z m30 -21 c0 -8 -4 -15 -10 -15 -5 0 -10 7 -10 15 0 8 5
15 10 15 6 0 10 -7 10 -15z m42 -20 c6 -14 22 -28 34 -31 30 -8 27 -41 -3 -49
-17 -4 -26 -17 -34 -50 -12 -47 -23 -56 -33 -29 -4 9 -13 14 -21 10 -11 -4
-15 2 -15 19 0 14 -4 25 -10 25 -14 0 -12 11 5 34 9 11 27 19 44 19 26 0 28 2
19 22 -7 16 -17 21 -32 19 -12 -3 -9 0 8 7 21 9 25 14 15 20 -11 7 -11 9 -1 9
7 0 18 -11 24 -25z m-72 -5 c0 -5 -5 -10 -11 -10 -5 0 -7 5 -4 10 3 6 8 10 11
10 2 0 4 -4 4 -10z m-26 -26 c15 -6 23 -34 10 -34 -7 0 -34 27 -34 34 0 8 5 7
24 0z m66 -4 c-20 -13 -33 -13 -25 0 3 6 14 10 23 10 15 0 15 -2 2 -10z m90
-79 c0 -12 -28 -22 -34 -12 -3 5 -3 11 1 15 9 9 33 7 33 -3z m-104 -56 c-3 -8
-2 -14 2 -14 24 4 34 -3 29 -20 -2 -10 -1 -24 3 -31 10 -16 -9 -72 -22 -64 -5
3 -7 12 -4 20 3 7 -4 18 -14 24 -28 15 -26 100 2 100 6 0 8 -7 4 -15z m-6
-110 c0 -8 -4 -15 -10 -15 -5 0 -10 7 -10 15 0 8 5 15 10 15 6 0 10 -7 10 -15z"/>
<path d="M991 306 c-10 -12 -6 -13 24 -6 48 11 56 20 18 20 -17 0 -36 -6 -42
-14z"/>
<path d="M607 380 c-36 -11 -56 -37 -57 -71 0 -39 17 -47 85 -39 33 4 66 5 74
2 9 -3 12 -1 7 6 -9 14 -85 16 -120 3 -22 -9 -25 -7 -31 20 -8 35 3 54 12 21
8 -34 30 -26 37 13 5 27 12 35 29 35 l21 0 -22 -16 c-38 -27 -28 -42 26 -36
37 3 52 0 66 -14 17 -17 17 -18 1 -30 -10 -7 -43 -18 -74 -25 -31 -6 -73 -18
-93 -26 -39 -16 -79 -66 -77 -99 1 -14 3 -13 9 6 8 25 8 25 9 2 1 -13 14 -37
30 -53 26 -25 37 -29 88 -29 39 0 68 6 89 19 30 18 31 18 42 0 9 -14 24 -19
52 -19 26 0 40 -5 40 -13 0 -15 -73 -12 -105 4 -15 7 -29 6 -50 -5 -17 -9 -42
-16 -57 -16 -16 0 -28 -4 -28 -9 0 -10 67 1 96 17 18 9 24 9 34 -3 8 -10 31
-15 66 -15 47 0 54 3 54 19 0 11 5 23 10 26 6 4 8 11 5 16 -4 5 -6 54 -6 110
1 165 -26 200 -157 205 -43 2 -90 -1 -105 -6z m148 -20 c-6 -10 7 -14 32 -11
14 2 42 -37 48 -68 2 -11 7 -26 11 -33 4 -7 3 -8 -5 -4 -6 4 -14 0 -17 -8 -3
-9 -11 -13 -17 -9 -6 3 -7 1 -3 -6 6 -9 11 -9 22 0 11 9 14 9 14 -1 0 -6 -10
-14 -22 -18 -21 -5 -21 -6 -2 -13 18 -7 18 -8 -3 -8 -12 -1 -27 -9 -32 -18 -9
-15 -10 -13 -11 11 0 16 -7 38 -17 48 -15 17 -15 19 1 37 19 21 16 47 -10 89
-13 19 -13 22 1 22 9 0 13 -4 10 -10z m-58 -16 c-3 -3 -12 -4 -19 -1 -8 3 -5
6 6 6 11 1 17 -2 13 -5z m-74 -156 c-14 -18 -23 -59 -12 -52 5 3 9 1 9 -5 0
-6 10 -19 22 -31 16 -14 18 -20 7 -21 -51 -4 -95 13 -83 33 3 5 -2 15 -11 22
-17 12 -16 13 1 13 11 0 23 -5 27 -11 5 -7 7 -3 6 9 -3 40 1 54 19 57 23 6 27
1 15 -14z m119 -20 c-8 -18 -11 -19 -11 -5 -1 20 -15 21 -56 2 -34 -15 -19
-20 19 -5 23 8 26 7 26 -11 0 -37 -73 -46 -83 -9 -7 26 3 35 53 52 51 18 69
10 52 -24z m-162 12 c0 -5 -4 -10 -10 -10 -5 0 -10 5 -10 10 0 6 5 10 10 10 6
0 10 -4 10 -10z m268 -24 c1 -20 -2 -24 -23 -21 -14 1 -28 -2 -31 -6 -3 -5 0
-9 6 -9 6 0 18 -6 25 -14 12 -12 11 -16 -4 -30 -14 -13 -21 -14 -27 -5 -4 8
-3 10 4 5 22 -13 12 13 -10 29 -21 15 -21 17 -6 26 10 5 15 16 12 24 -9 21 12
19 21 -2 6 -16 8 -15 16 5 11 28 14 28 17 -2z m-303 -36 c3 -5 1 -10 -4 -10
-6 0 -11 5 -11 10 0 6 2 10 4 10 3 0 8 -4 11 -10z m235 -36 c0 -8 -4 -12 -10
-9 -5 3 -10 10 -10 16 0 5 5 9 10 9 6 0 10 -7 10 -16z"/>
<path d="M1295 383 c-35 -10 -68 -50 -61 -75 11 -42 18 -45 84 -38 92 9 97 -5
8 -25 -82 -18 -132 -48 -107 -64 9 -6 10 -11 2 -15 -6 -4 -11 -1 -11 6 -1 25
-40 -34 -40 -61 0 -49 47 -102 89 -100 23 0 22 2 -9 13 -44 16 -75 65 -65 104
l8 27 8 -34 c12 -55 42 -72 121 -69 47 3 72 9 86 22 20 17 21 17 31 -3 8 -14
21 -20 44 -19 17 0 37 -1 42 -2 27 -7 30 5 27 122 -3 136 -12 169 -49 194 -27
17 -167 29 -208 17z m27 -29 c-12 -8 -20 -20 -17 -25 4 -5 1 -9 -4 -9 -14 0
-14 6 -1 31 6 10 18 19 28 19 13 0 12 -3 -6 -16z m118 12 c0 -3 -4 -8 -10 -11
-5 -3 -10 -1 -10 4 0 6 5 11 10 11 6 0 10 -2 10 -4z m-50 -16 c12 -8 11 -10
-7 -10 -13 0 -23 5 -23 10 0 13 11 13 30 0z m109 -14 c9 -6 9 -11 0 -22 -9
-12 -9 -13 2 -9 10 4 15 -3 17 -22 1 -15 8 -30 15 -35 9 -6 8 -8 -4 -8 -9 0
-23 -8 -30 -17 -13 -16 -12 -17 4 -4 15 12 17 11 17 -3 0 -10 -8 -16 -22 -16
-19 0 -20 -2 -8 -10 13 -8 12 -10 -2 -10 -29 0 -33 1 -31 10 2 5 -8 17 -21 28
-23 18 -23 19 -5 30 20 13 26 56 9 67 -5 3 -7 12 -4 19 6 14 41 15 63 2z
m-201 -31 c70 19 132 9 132 -20 0 -18 -16 -20 -26 -4 -5 8 -29 10 -75 6 -62
-5 -70 -4 -79 14 -6 11 -8 25 -4 31 5 7 10 3 16 -11 7 -19 13 -22 36 -16z m39
-97 c-3 -8 -6 -5 -6 6 -1 11 2 17 5 13 3 -3 4 -12 1 -19z m-17 -4 c0 -3 -7
-12 -15 -20 -21 -22 -19 -38 10 -72 18 -21 21 -32 13 -34 -22 -8 -76 9 -95 28
-16 16 -16 17 -1 12 9 -4 22 -1 28 7 7 8 17 12 22 9 6 -4 6 2 -1 13 -6 11 -7
23 -3 27 3 4 -1 4 -11 0 -20 -7 -22 1 -4 21 12 14 57 21 57 9z m110 -32 c0
-24 -1 -24 -13 -8 -12 17 -17 17 -53 5 -24 -8 -33 -14 -22 -17 9 -2 26 2 37 7
14 8 22 8 26 1 22 -35 -45 -60 -76 -29 -11 11 -19 23 -19 28 0 11 102 51 113
44 4 -2 7 -16 7 -31z m95 -1 c-3 -5 -1 -12 5 -16 19 -12 10 -21 -20 -21 -24 0
-30 4 -30 20 0 15 3 17 9 8 6 -10 10 -10 21 3 14 16 25 21 15 6z m-262 -32
c-8 -8 -16 -8 -30 0 -16 9 -14 10 12 11 21 0 26 -3 18 -11z m237 -29 c3 -4 11
-9 19 -11 9 -4 6 -10 -13 -22 -14 -10 -26 -13 -26 -7 0 5 6 10 13 10 6 1 -1
12 -18 26 -29 25 -29 25 -5 18 14 -3 27 -10 30 -14z m-36 -25 c3 -8 1 -15 -3
-15 -5 0 -11 7 -15 15 -3 8 -1 15 3 15 5 0 11 -7 15 -15z"/>
<path d="M2351 381 c-7 -5 -10 -14 -7 -20 4 -6 3 -11 -3 -11 -5 0 -11 7 -13
15 -6 27 -64 -19 -98 -77 -27 -47 -31 -60 -28 -115 4 -67 21 -99 72 -137 42
-32 168 -35 224 -7 41 21 75 58 66 72 -2 4 0 10 6 14 18 11 11 24 -17 28 l-28
4 26 2 c20 1 29 8 34 29 21 76 -14 160 -80 192 -43 21 -129 27 -154 11z m69
-31 c0 -5 -4 -10 -10 -10 -5 0 -10 5 -10 10 0 6 5 10 10 10 6 0 10 -4 10 -10z
m74 -5 c-4 -11 -2 -13 9 -9 29 11 77 -92 54 -115 -12 -12 -79 -15 -90 -5 -3 4
0 13 8 21 23 22 18 57 -11 84 l-26 24 29 6 c15 4 29 7 30 8 1 0 0 -6 -3 -14z
m-132 -23 c-34 -29 -41 -58 -20 -92 10 -15 9 -23 -7 -40 -10 -11 -16 -23 -12
-26 3 -3 -2 -14 -11 -24 -44 -49 -46 -52 -31 -61 8 -5 20 -7 27 -4 7 3 15 -2
18 -10 9 -22 159 -15 199 9 l30 18 -31 -29 c-36 -35 -99 -48 -176 -38 -83 12
-138 76 -138 162 0 21 5 45 11 53 8 12 9 9 5 -12 -5 -23 -3 -26 11 -21 16 5
16 4 -1 -9 -18 -14 -18 -16 -2 -50 16 -32 53 -52 42 -21 -3 8 4 18 17 23 l22
9 -22 7 c-28 8 -56 85 -34 92 10 3 10 6 1 12 -9 6 -5 16 16 39 31 35 44 39 44
14 0 -15 2 -16 10 -3 5 8 10 11 10 5 0 -5 5 -2 11 8 5 9 18 17 27 17 12 0 8
-8 -16 -28z m91 -34 c27 -36 14 -48 -18 -18 -19 18 -31 21 -57 17 l-33 -7 24
21 c31 26 59 21 84 -13z m-37 -18 c34 -13 24 -23 -23 -23 -39 0 -57 18 -26 26
10 3 19 5 20 6 1 0 14 -4 29 -9z m154 -97 c0 -10 -29 -13 -110 -13 -81 0 -110
3 -110 13 0 9 29 12 110 12 81 0 110 -3 110 -12z m-120 -38 c-7 -8 -25 -15
-41 -15 -16 0 -29 -4 -29 -10 0 -5 5 -10 10 -10 6 0 10 -8 10 -17 0 -23 -23
-1 -25 24 0 10 -4 24 -9 31 -5 9 6 12 45 12 45 0 50 -2 39 -15z m-123 -31 c-9
-9 -28 6 -21 18 4 6 10 6 17 -1 6 -6 8 -13 4 -17z m208 16 c10 -16 -57 -41
-73 -28 -9 8 -11 6 -6 -8 5 -16 4 -16 -5 -4 -8 12 -5 19 12 32 25 20 62 23 72
8z m-187 -25 c-6 -14 -13 -24 -14 -22 -6 6 9 47 17 47 5 0 3 -11 -3 -25z"/>
<path d="M2639 383 c-1 -2 -2 -8 -3 -13 0 -6 -7 -15 -15 -19 -9 -6 -12 -18 -7
-37 11 -46 98 -278 109 -291 5 -7 31 -13 59 -13 41 0 51 3 55 20 3 11 9 20 14
20 14 0 139 283 139 315 0 21 -108 22 -116 1 -3 -8 -12 -12 -20 -9 -15 6 -27
-18 -45 -86 l-11 -45 -26 79 -27 78 -53 1 c-28 1 -53 0 -53 -1z m85 -34 c-3
-6 0 -15 7 -20 7 -4 11 -11 7 -14 -3 -3 -12 0 -19 8 -8 7 -21 12 -29 9 -9 -2
-7 2 5 12 23 18 39 21 29 5z m196 3 c0 -4 -9 -8 -19 -8 -11 0 -17 4 -15 8 3 4
12 8 20 8 8 0 14 -4 14 -8z m30 -13 c0 -6 -4 -7 -10 -4 -5 3 -10 11 -10 16 0
6 5 7 10 4 6 -3 10 -11 10 -16z m-252 -144 l57 -140 38 -3 c40 -3 52 -21 15
-23 -29 -2 -72 2 -76 6 -4 4 -96 248 -107 284 -5 16 -3 22 5 19 7 -2 37 -66
68 -143z m162 138 c0 -26 -35 -123 -44 -123 -8 0 -6 20 8 65 12 36 24 65 28
65 5 0 8 -3 8 -7z m81 -13 c6 0 7 -5 4 -10 -5 -8 -11 -7 -21 1 -16 13 -19 -2
-3 -18 8 -8 8 -13 0 -18 -6 -3 -15 4 -20 17 -10 28 -4 41 16 34 8 -3 19 -6 24
-6z m-212 -22 c8 -2 3 -9 -15 -16 -24 -12 -26 -11 -14 2 10 13 10 16 -4 16 -9
0 -16 5 -16 10 0 7 6 7 18 2 9 -5 23 -11 31 -14z m11 -28 c0 -5 6 -7 13 -5 8
4 12 -5 13 -25 1 -16 -3 -30 -7 -30 -5 0 -9 5 -9 12 0 9 -3 9 -12 0 -15 -15
-38 -16 -38 -2 0 6 6 9 12 8 8 -2 12 7 10 25 -2 15 1 27 7 27 6 0 11 -4 11
-10z m176 -17 c-8 -8 -66 8 -61 17 3 5 19 4 36 -2 16 -6 28 -12 25 -15z m-9
-39 c2 -10 0 -13 -3 -6 -9 20 -33 14 -29 -7 3 -14 -1 -18 -11 -14 -10 4 -13 0
-8 -13 5 -17 4 -17 -7 0 -9 14 -9 21 -1 24 6 2 8 10 5 19 -4 11 -2 14 5 9 7
-4 12 -3 12 3 0 18 35 4 37 -15z m-136 -28 c-8 -10 -9 -16 -1 -21 5 -3 14 4
19 17 6 13 10 17 10 9 1 -8 4 -11 8 -8 8 9 33 -12 33 -27 0 -6 -5 -4 -11 4 -8
12 -9 11 -6 -5 2 -11 9 -19 16 -17 8 2 11 -3 8 -12 -4 -9 -2 -18 4 -21 5 -4 7
-11 4 -16 -9 -13 -75 -11 -75 2 0 6 -7 8 -16 5 -14 -5 -15 -4 -5 8 9 10 9 16
1 21 -6 4 -8 15 -5 26 5 14 0 20 -19 25 -37 9 -32 19 10 22 31 2 35 0 25 -12z
m114 -36 c-3 -5 -11 -10 -16 -10 -6 0 -7 5 -4 10 3 6 11 10 16 10 6 0 7 -4 4
-10z"/>
<path d="M899 285 c-12 -12 3 -43 23 -48 18 -5 19 -12 15 -104 -3 -54 -1 -106
5 -115 10 -20 88 -26 88 -7 0 6 -15 9 -37 7 l-38 -3 -3 117 c-2 105 -5 117
-22 123 -10 3 -20 13 -22 21 -2 9 -6 13 -9 9z"/>
<path d="M495 71 c18 -36 52 -61 80 -61 15 1 11 5 -13 15 -18 8 -40 28 -50 45
-22 39 -37 39 -17 1z"/>
<path d="M1393 45 c-13 -9 -42 -20 -65 -24 l-43 -9 40 -1 c23 -1 51 6 63 15
21 15 24 15 35 -1 10 -12 25 -15 67 -13 29 2 55 8 57 13 2 6 -19 9 -53 7 -42
-3 -58 0 -67 12 -11 15 -14 15 -34 1z"/>
</g>
</svg>
